<svg xmlns="http://www.w3.org/2000/svg" viewBox="0 0 750 500"><g id="freepik--Floor--inject-4"><path d="M689.18,433.54c0,.14-137.27.26-306.57.26S76,433.68,76,433.54s137.25-.26,306.6-.26S689.18,433.39,689.18,433.54Z" style="fill:#263238"></path></g><g id="freepik--character-2--inject-4"><path d="M407,171.52,432,178s20.67-22.94,21.64-23.74,13.65,3.22,13.65,3.22l-14.73,27.27c-3.51,8.89-8.74,13.91-13.82,14.13l-41-8.14Z" style="fill:#ffbe9d"></path><path d="M452.77,155.28s2.85-5.73,3.25-6.59A78.75,78.75,0,0,0,458.5,141s1.7-.37,1.59,3.43.66,2.75.66,2.75,7.9-9.6,9.82-9c.71.24-.27,2.52-1.58,3.75a26.52,26.52,0,0,0-2.72,3.23s7.43-6.7,9.13-5.65c0,0,.83.66-1.53,2.64a53.05,53.05,0,0,0-5.5,5.3s7.37-5.19,8.2-4.63c1.39.93-6.09,6.23-7.32,8.2,0,0,5.55-4.26,5.7-2.89s-6.76,6.17-9.92,13.14Z" style="fill:#ffbe9d"></path><path d="M458.71,148.14s.64.12,1.39.83a5.11,5.11,0,0,1,1.6,3.59l-.46-.17,0,0a6,6,0,0,1,3.45-2,2.86,2.86,0,0,1,1.63,0c0,.09-.62.07-1.55.33a6.33,6.33,0,0,0-3.13,1.93l0,0-.45.49v-.65a5.33,5.33,0,0,0-1.34-3.35C459.21,148.5,458.66,148.21,458.71,148.14Z" style="fill:#eb996e"></path><path d="M343,170.45l-25,6.49S297.38,154,296.41,153.19s-13.65,3.23-13.65,3.23l14.73,27.27c3.51,8.89,8.74,13.91,13.82,14.13l41-8.14Z" style="fill:#ffbe9d"></path><path d="M297.23,154.21s-2.85-5.73-3.25-6.59A78.75,78.75,0,0,1,291.5,140s-1.7-.38-1.59,3.43-.66,2.75-.66,2.75-7.9-9.6-9.82-9c-.71.24.27,2.52,1.58,3.75a26.52,26.52,0,0,1,2.72,3.23s-7.43-6.7-9.13-5.65c0,0-.83.66,1.53,2.63a53.7,53.7,0,0,1,5.5,5.31s-7.37-5.19-8.2-4.63c-1.39.93,6.08,6.23,7.32,8.2,0,0-5.55-4.26-5.7-2.89s6.76,6.17,9.92,13.14Z" style="fill:#ffbe9d"></path><path d="M291.29,147.07c0,.07-.5.36-1.13,1.08a5.33,5.33,0,0,0-1.34,3.35v.65l-.45-.49,0,0a6.33,6.33,0,0,0-3.13-1.93c-.93-.26-1.55-.24-1.55-.33a2.86,2.86,0,0,1,1.63,0,6,6,0,0,1,3.45,1.95l0,0-.46.17a5.11,5.11,0,0,1,1.6-3.59C290.65,147.19,291.28,147,291.29,147.07Z" style="fill:#eb996e"></path><path d="M385.14,137.64a1.56,1.56,0,0,0,2.09,2c1-.46,1.25-1.87,1.11-3s-.45-2.36.08-3.38a7.57,7.57,0,0,1,1.86-1.84,4.92,4.92,0,0,0,1.6-4.12,4.15,4.15,0,0,0-2.68-3.43c-1.48-.5-3.35-.14-4.41-1.29-.77-.83-.75-2.12-1.33-3.1-.89-1.51-2.94-1.86-4.69-1.71s-3.55.6-5.23.08c-1.41-.43-2.52-1.48-3.82-2.17a7.7,7.7,0,0,0-10.58,10,4.85,4.85,0,0,0,2.26,2.48" style="fill:#263238"></path><path d="M383.39,167.47l-16.55-1.32c-.11-1.93,0-9.41,0-9.41s-6.89-1.07-7-8S361,126.07,361,126.07h0a23.94,23.94,0,0,1,24.05,3l1,.78Z" style="fill:#ffbe9d"></path><path d="M363.8,137.76a1,1,0,0,0,.07-1.41,1,1,0,0,0-1.42-.07,1,1,0,0,0-.07,1.41A1,1,0,0,0,363.8,137.76Z" style="fill:#263238"></path><path d="M360.92,136.5c.11.12.78-.4,1.73-.41s1.64.49,1.75.37-.06-.27-.36-.5a2.28,2.28,0,0,0-1.39-.44,2.33,2.33,0,0,0-1.38.47C361,136.23,360.87,136.45,360.92,136.5Z" style="fill:#263238"></path><path d="M372.64,136.67a1,1,0,0,0-.33,1.37,1,1,0,1,0,1.7-1A1,1,0,0,0,372.64,136.67Z" style="fill:#263238"></path><path d="M371.23,137c.1.12.78-.4,1.73-.41s1.64.49,1.74.37-.06-.27-.36-.5A2.25,2.25,0,0,0,373,136a2.35,2.35,0,0,0-1.38.47C371.28,136.73,371.17,137,371.23,137Z" style="fill:#263238"></path><path d="M367.42,145a4.72,4.72,0,0,0-1.53-.32c-.25,0-.45-.09-.46-.22a1.34,1.34,0,0,1,.17-.71c.25-.63.5-1.26.75-1.93a26,26,0,0,0,1.63-5.07,26.65,26.65,0,0,0-2.13,4.88c-.25.67-.48,1.31-.71,1.94a1.61,1.61,0,0,0-.14,1,.66.66,0,0,0,.43.39,1.76,1.76,0,0,0,.42.06A4.49,4.49,0,0,0,367.42,145Z" style="fill:#263238"></path><path d="M370.5,146.05a18,18,0,0,1-4.65,1.35,2.63,2.63,0,0,0,3.09,1C371,147.69,370.5,146.05,370.5,146.05Z" style="fill:#fff"></path><path d="M366.86,156.64a16.07,16.07,0,0,0,9-2.55s-2.12,4.95-9,4.33Z" style="fill:#eb996e"></path><path d="M360.86,127.81s4,2.33,9.67,0c3.71-1.52,7.93-2.08,8.8-1.3s.78,4.48,4.24,5.82c0,0-.76,7,2.05,7s1.87-11,1.87-11l-6.59-3.85-7.37-2-7.11.47L360.86,124Z" style="fill:#263238"></path><path d="M385.23,137c.12-.05,4.74-1.4,4.59,3.31s-4.85,3.58-4.86,3.45S385.23,137,385.23,137Z" style="fill:#ffbe9d"></path><path d="M386.46,142s.08.06.22.13a.77.77,0,0,0,.61,0,2,2,0,0,0,1-1.79,2.64,2.64,0,0,0-.2-1.18.93.93,0,0,0-.59-.65.41.41,0,0,0-.49.21c-.07.13,0,.22-.07.23s-.1-.08-.05-.28a.49.49,0,0,1,.19-.28.64.64,0,0,1,.46-.11,1.15,1.15,0,0,1,.83.76,2.71,2.71,0,0,1,.24,1.32,2.11,2.11,0,0,1-1.26,2,.88.88,0,0,1-.74-.14C386.46,142.16,386.44,142.05,386.46,142Z" style="fill:#eb996e"></path><path d="M388.43,122.42c0,.15-.74.08-1.52.34s-1.33.69-1.44.59.33-.8,1.28-1.09S388.48,122.29,388.43,122.42Z" style="fill:#263238"></path><path d="M385.75,119.45a3.21,3.21,0,0,1,.14,2.24c-.25,1.28-1.05,2-1.14,1.94s.41-.9.63-2S385.59,119.46,385.75,119.45Z" style="fill:#263238"></path><path d="M365.53,134.79c-.14.26-1,0-2.13,0s-2,.1-2.13-.17.82-.93,2.18-.87S365.69,134.56,365.53,134.79Z" style="fill:#263238"></path><path d="M376.1,133.91c-.14.26-1,0-2.13,0s-2,.1-2.13-.17.81-.93,2.18-.87S376.26,133.67,376.1,133.91Z" style="fill:#263238"></path><path d="M415.09,425l1.64,6.9s11.27,14.64,14.75,13.93c2.28-.47-.52-4.29-4.81-15.42l-.9-4.59Z" style="fill:#A855F7"></path><path d="M431.94,443.64a.59.59,0,0,1-.09.21,1.35,1.35,0,0,1-.47.44,1.89,1.89,0,0,1-1,.22,2.58,2.58,0,0,1-1.27-.47,53.13,53.13,0,0,1-5.68-5.3,70.88,70.88,0,0,1-5-5.9c-.6-.79-1.07-1.44-1.39-1.9l-.36-.53-.12-.19a.69.69,0,0,1,.15.17l.39.5c.42.54.9,1.15,1.44,1.86,1.24,1.55,3,3.66,5.08,5.85a62,62,0,0,0,5.61,5.32,2.1,2.1,0,0,0,2.16.3A1.4,1.4,0,0,0,431.94,443.64Z" style="fill:#263238"></path><path d="M430.34,438.94a8.58,8.58,0,0,0-.91,0,5.22,5.22,0,0,0-2,.77,4.06,4.06,0,0,0-1.52,1.52c-.27.49-.34.84-.38.83a2,2,0,0,1,.24-.9,4,4,0,0,1,1.55-1.63,4.81,4.81,0,0,1,2.13-.74A1.76,1.76,0,0,1,430.34,438.94Z" style="fill:#263238"></path><path d="M419.67,435.5s.12-.5.21-1.29a5.37,5.37,0,0,0-.56-3,5.07,5.07,0,0,0-2.16-2.18,8.14,8.14,0,0,0-1.23-.44,1.23,1.23,0,0,1,.36,0,3.92,3.92,0,0,1,.93.29,4.87,4.87,0,0,1,2.28,2.22,5.13,5.13,0,0,1,.53,3.13,5.75,5.75,0,0,1-.23.95A1.31,1.31,0,0,1,419.67,435.5Z" style="fill:#263238"></path><path d="M415.8,426.15a7.12,7.12,0,0,1,.62,2.16c.21,1.23.43,2.19.39,2.21a7.06,7.06,0,0,1-.59-2.17C416,427.13,415.75,426.17,415.8,426.15Z" style="fill:#263238"></path><path d="M426.87,431.36c0,.07-.64,0-1.4.22s-1.32.47-1.35.42a3.38,3.38,0,0,1,2.75-.64Z" style="fill:#263238"></path><path d="M427.1,432.55c0,.06-.54,0-1.17.15s-1.08.44-1.12.39a1.79,1.79,0,0,1,1.07-.59A1.65,1.65,0,0,1,427.1,432.55Z" style="fill:#263238"></path><path d="M428,434a5.25,5.25,0,0,0-1.21,0,5.06,5.06,0,0,0-1.12.49,1.49,1.49,0,0,1,1.07-.7A1.46,1.46,0,0,1,428,434Z" style="fill:#263238"></path><path d="M426.09,430.87a1.29,1.29,0,0,1-.37-.05,6.73,6.73,0,0,1-1-.27,8.51,8.51,0,0,1-1.4-.62,8.21,8.21,0,0,1-.78-.48,1.18,1.18,0,0,1-.56-.86.67.67,0,0,1,.85-.54,1.81,1.81,0,0,1,.79.53,12.31,12.31,0,0,1,1,1.13,8.38,8.38,0,0,1,.62.82c.14.2.21.32.19.33s-.34-.41-.92-1.06c-.29-.32-.64-.69-1.06-1.08a1.61,1.61,0,0,0-.69-.47c-.26-.06-.6.08-.6.35s.24.51.47.68a7.85,7.85,0,0,0,.75.48,9.78,9.78,0,0,0,1.36.66C425.57,430.73,426.1,430.84,426.09,430.87Z" style="fill:#263238"></path><path d="M425.5,430.73a1.22,1.22,0,0,1,0-.35c0-.22,0-.54.07-.93a5,5,0,0,1,.36-1.36,2.79,2.79,0,0,1,.44-.73.77.77,0,0,1,.9-.28.87.87,0,0,1,.31.89,3.2,3.2,0,0,1-.25.81,4.28,4.28,0,0,1-.8,1.16,5.07,5.07,0,0,1-.72.61,1,1,0,0,1-.3.18s.39-.31.91-.89a4.39,4.39,0,0,0,.73-1.14,3.1,3.1,0,0,0,.22-.75.69.69,0,0,0-.2-.69c-.21-.12-.47.05-.65.24a3.34,3.34,0,0,0-.42.66,5.53,5.53,0,0,0-.38,1.31A11.42,11.42,0,0,1,425.5,430.73Z" style="fill:#263238"></path><g style="opacity:0.4"><path d="M416.73,431.88l-.8-3.32s2.77.51,3.48,2.58a8.63,8.63,0,0,1,.54,3.54l6,6.47s1.51-2.94,4.23-2.24c0,0,2.15,4.73,2.08,5.91s-1.44,1-1.93.82a24.52,24.52,0,0,1-5.38-4.25C421.78,438.09,418.27,433.91,416.73,431.88Z"></path></g><path d="M359,428.47l0-9.2,17.22-.21.22,13.45-1.07.09c-4.75.32-24.17,1.3-27.36.37C344.44,431.94,359,428.47,359,428.47Z" style="fill:#A855F7"></path><g style="opacity:0.4"><path d="M370.17,432.45a6,6,0,0,1,2.16-3.69,5.85,5.85,0,0,1,4-1.31l.06,4.82Z"></path></g><g style="opacity:0.4"><path d="M351.9,430.42s-5.11,1.54-4.46,2.38,20.32.58,29-.29l0-.38-22.94.49S352.91,430.45,351.9,430.42Z"></path></g><path d="M376.66,432.12l-.3,0-.85.06-3.13.18c-2.64.13-6.29.26-10.33.31s-7.69,0-10.34,0l-3.13-.09-.85,0-.3,0h1.15l3.13,0c2.65,0,6.3,0,10.34,0s7.68-.16,10.33-.25l3.13-.11.85,0Z" style="fill:#263238"></path><path d="M353.46,432.88a6.88,6.88,0,0,0-.6-1.48,7.8,7.8,0,0,0-1.08-1.19,2.35,2.35,0,0,1,1.25,1.08A2.29,2.29,0,0,1,353.46,432.88Z" style="fill:#263238"></path><path d="M358.51,430.24c-.05,0-.29-.26-.55-.65s-.43-.74-.38-.77.3.26.55.65S358.56,430.21,358.51,430.24Z" style="fill:#263238"></path><path d="M359.9,429.49s-.32-.14-.62-.4-.51-.51-.47-.56.31.14.61.4S359.93,429.44,359.9,429.49Z" style="fill:#263238"></path><path d="M360.76,427.85a2.11,2.11,0,0,1-.9.13,1.94,1.94,0,0,1-.9-.09,2.17,2.17,0,0,1,.89-.12A2.08,2.08,0,0,1,360.76,427.85Z" style="fill:#263238"></path><path d="M361,426.7a2.56,2.56,0,0,1-2,.18,5.54,5.54,0,0,1,1-.08A5.12,5.12,0,0,1,361,426.7Z" style="fill:#263238"></path><path d="M357.91,428.75a3.27,3.27,0,0,1-1.11,0,6,6,0,0,1-1.18-.24,3.69,3.69,0,0,1-.68-.27.61.61,0,0,1-.28-.34.45.45,0,0,1,.16-.45,2,2,0,0,1,2.52.57,1.92,1.92,0,0,1,.37.73c.05.19.05.3,0,.3a2.84,2.84,0,0,0-.51-.94,2,2,0,0,0-1-.6,1.69,1.69,0,0,0-1.32.11c-.18.13-.11.33.09.45a4.39,4.39,0,0,0,.63.26,9.84,9.84,0,0,0,1.14.28C357.48,428.72,357.91,428.71,357.91,428.75Z" style="fill:#263238"></path><path d="M357.62,428.81a1.17,1.17,0,0,1-.14-.77,1.76,1.76,0,0,1,.3-.81,1.1,1.1,0,0,1,.91-.58.44.44,0,0,1,.35.51,1.35,1.35,0,0,1-.18.49,3.65,3.65,0,0,1-.52.68,1.61,1.61,0,0,1-.63.46s.22-.21.52-.56a4.31,4.31,0,0,0,.46-.67c.15-.24.24-.66,0-.7s-.56.25-.73.48a1.82,1.82,0,0,0-.3.72A4.44,4.44,0,0,0,357.62,428.81Z" style="fill:#263238"></path><path d="M376.25,427.41s-.5,0-1.27.06a5.51,5.51,0,0,0-2.77,1.18,5.59,5.59,0,0,0-1.7,2.47c-.25.74-.27,1.24-.31,1.24a1.26,1.26,0,0,1,0-.35,4.92,4.92,0,0,1,.18-.93,5.24,5.24,0,0,1,4.59-3.76,4.78,4.78,0,0,1,1,0A1,1,0,0,1,376.25,427.41Z" style="fill:#263238"></path><path d="M374.37,420.26a27.8,27.8,0,0,1,.19,3.54,30,30,0,0,1,0,3.54,62.77,62.77,0,0,1-.18-7.08Z" style="fill:#263238"></path><path d="M368,430.8a14.23,14.23,0,0,1-5,.11c0-.06,1.13,0,2.52,0S368,430.74,368,430.8Z" style="fill:#263238"></path><path d="M371.36,430.75c0,.05-.09.24-.2.5s-.17.49-.23.49-.09-.27,0-.57S371.32,430.71,371.36,430.75Z" style="fill:#263238"></path><path d="M372.61,429.16s-.06.22-.24.4-.35.3-.39.26.06-.22.24-.41S372.57,429.12,372.61,429.16Z" style="fill:#263238"></path><path d="M374.42,428.41c0,.06-.24.06-.49.15s-.43.23-.48.19.1-.28.41-.39S374.44,428.36,374.42,428.41Z" style="fill:#263238"></path><path d="M375.72,428.05c0,.05-.08.14-.22.2s-.28.06-.3,0,.08-.14.22-.2S375.69,428,375.72,428.05Z" style="fill:#263238"></path><polyline points="347.31 245.85 355.35 424.5 382.17 425.07 377.72 275.5 407.88 426.21 433.38 426.21 399.33 245.85" style="fill:#263238"></polyline><polygon points="406.56 423.78 407.17 426.42 433.38 426.78 432.99 422.65 406.56 423.78" style="fill:#455a64"></polygon><path d="M427,423.63c.15,0,.32.28.38.69s0,.76-.13.78-.31-.28-.38-.69S426.82,423.65,427,423.63Z" style="fill:#455a64"></path><path d="M426,417.78c.14,0,.37.61.5,1.42s.13,1.48,0,1.5-.36-.61-.5-1.42S425.84,417.8,426,417.78Z" style="fill:#455a64"></path><path d="M425,411.93c.14,0,.37.61.5,1.42s.13,1.48,0,1.5-.37-.61-.5-1.42S424.86,412,425,411.93Z" style="fill:#455a64"></path><path d="M424,406.08c.14,0,.36.61.5,1.42s.13,1.48,0,1.5-.37-.61-.51-1.42S423.87,406.1,424,406.08Z" style="fill:#455a64"></path><path d="M423,400.23c.14,0,.37.61.5,1.42s.13,1.48,0,1.5-.36-.61-.5-1.42S422.89,400.25,423,400.23Z" style="fill:#455a64"></path><path d="M422,394.38c.14,0,.37.61.51,1.42s.13,1.48,0,1.5-.37-.61-.51-1.42S421.9,394.4,422,394.38Z" style="fill:#455a64"></path><path d="M421.05,388.53c.14,0,.37.61.51,1.41s.13,1.49,0,1.51-.37-.61-.51-1.42S420.91,388.55,421.05,388.53Z" style="fill:#455a64"></path><path d="M420.06,382.68c.14,0,.37.61.5,1.42s.14,1.48,0,1.5-.37-.61-.51-1.42S419.92,382.7,420.06,382.68Z" style="fill:#455a64"></path><path d="M419.06,376.83c.14,0,.37.61.51,1.42s.13,1.48,0,1.5-.37-.61-.51-1.42S418.92,376.85,419.06,376.83Z" style="fill:#455a64"></path><path d="M418.06,371c.14,0,.37.61.51,1.42s.13,1.48,0,1.5-.37-.61-.5-1.42S417.92,371,418.06,371Z" style="fill:#455a64"></path><path d="M417.06,365.13c.14,0,.37.61.5,1.42s.14,1.48,0,1.5-.37-.61-.51-1.41S416.92,365.16,417.06,365.13Z" style="fill:#455a64"></path><path d="M416.05,359.28c.14,0,.37.61.51,1.42s.13,1.48,0,1.51-.37-.61-.51-1.42S415.91,359.31,416.05,359.28Z" style="fill:#455a64"></path><path d="M415,353.44c.14,0,.37.61.51,1.41s.14,1.49,0,1.51-.37-.61-.51-1.42S414.89,353.46,415,353.44Z" style="fill:#455a64"></path><path d="M414,347.59c.14,0,.37.61.51,1.42s.14,1.48,0,1.51-.37-.61-.51-1.42S413.87,347.62,414,347.59Z" style="fill:#455a64"></path><path d="M413,341.75c.15,0,.38.61.52,1.41s.14,1.49,0,1.51-.37-.61-.52-1.42S412.84,341.77,413,341.75Z" style="fill:#455a64"></path><path d="M412,335.91c.14,0,.37.6.52,1.41s.14,1.48,0,1.51-.37-.61-.52-1.42S411.81,335.93,412,335.91Z" style="fill:#455a64"></path><path d="M410.91,330.06c.14,0,.37.61.52,1.42s.14,1.48,0,1.51-.37-.61-.52-1.42S410.77,330.09,410.91,330.06Z" style="fill:#455a64"></path><path d="M409.86,324.22c.14,0,.37.61.52,1.42s.15,1.48,0,1.5-.38-.6-.52-1.41S409.72,324.25,409.86,324.22Z" style="fill:#455a64"></path><path d="M408.8,318.39c.14,0,.38.6.52,1.41s.15,1.48,0,1.51-.37-.61-.52-1.42S408.66,318.41,408.8,318.39Z" style="fill:#455a64"></path><path d="M407.74,312.55c.14,0,.37.61.52,1.41s.15,1.48,0,1.51-.37-.61-.52-1.41S407.6,312.58,407.74,312.55Z" style="fill:#455a64"></path><path d="M406.66,306.71c.14,0,.38.61.53,1.42s.15,1.48,0,1.5-.38-.6-.53-1.41S406.52,306.74,406.66,306.71Z" style="fill:#455a64"></path><path d="M405.58,300.88c.14,0,.37.61.52,1.41s.16,1.48,0,1.51-.38-.61-.53-1.41S405.43,300.91,405.58,300.88Z" style="fill:#455a64"></path><path d="M404.48,295.05c.14,0,.38.6.53,1.41s.16,1.48,0,1.5-.38-.6-.53-1.41S404.34,295.08,404.48,295.05Z" style="fill:#455a64"></path><path d="M403.37,289.22c.14,0,.38.6.54,1.41s.16,1.48,0,1.5-.38-.6-.53-1.4S403.23,289.25,403.37,289.22Z" style="fill:#455a64"></path><path d="M402.25,283.39c.15,0,.39.61.54,1.41s.17,1.48,0,1.51-.39-.61-.54-1.41S402.11,283.42,402.25,283.39Z" style="fill:#455a64"></path><path d="M401.12,277.57c.14,0,.39.6.54,1.4s.17,1.48,0,1.51-.38-.6-.54-1.41S401,277.6,401.12,277.57Z" style="fill:#455a64"></path><path d="M400,271.75c.14,0,.38.6.54,1.4s.17,1.48,0,1.51-.38-.6-.54-1.41S399.84,271.77,400,271.75Z" style="fill:#455a64"></path><path d="M398.82,265.93c.14,0,.39.6.55,1.4s.17,1.48,0,1.51-.38-.6-.54-1.41S398.68,266,398.82,265.93Z" style="fill:#455a64"></path><path d="M397.65,260.11c.14,0,.38.6.55,1.4s.18,1.48,0,1.51-.39-.6-.55-1.4S397.51,260.14,397.65,260.11Z" style="fill:#455a64"></path><path d="M396.46,254.29c.14,0,.39.6.55,1.41s.19,1.47,0,1.5-.38-.6-.55-1.4S396.32,254.32,396.46,254.29Z" style="fill:#455a64"></path><path d="M395.55,249.91c.14,0,.32.28.41.69s0,.75-.1.78-.33-.27-.41-.68S395.41,249.94,395.55,249.91Z" style="fill:#455a64"></path><path d="M377.55,423.61c.14,0,.27.32.3.73s-.08.76-.23.76-.27-.32-.3-.73S377.4,423.61,377.55,423.61Z" style="fill:#455a64"></path><path d="M377.3,417.65c.14,0,.29.66.32,1.48s-.06,1.49-.21,1.5-.28-.65-.31-1.48S377.16,417.66,377.3,417.65Z" style="fill:#455a64"></path><path d="M377.12,411.7c.14,0,.28.66.3,1.48s-.07,1.49-.22,1.5-.28-.66-.3-1.48S377,411.71,377.12,411.7Z" style="fill:#455a64"></path><path d="M377,405.75c.15,0,.28.66.3,1.48s-.08,1.49-.22,1.49-.28-.66-.3-1.48S376.82,405.75,377,405.75Z" style="fill:#455a64"></path><path d="M376.82,399.79c.15,0,.28.66.3,1.48s-.08,1.5-.23,1.5-.27-.66-.29-1.48S376.68,399.79,376.82,399.79Z" style="fill:#455a64"></path><path d="M376.67,393.83c.14,0,.28.66.3,1.48s-.08,1.5-.22,1.5-.28-.66-.3-1.48S376.52,393.83,376.67,393.83Z" style="fill:#455a64"></path><path d="M376.47,387.87c.15,0,.29.66.31,1.48s-.06,1.5-.2,1.5-.29-.66-.32-1.48S376.33,387.88,376.47,387.87Z" style="fill:#455a64"></path><path d="M376.22,381.92c.15,0,.29.66.32,1.48s-.05,1.49-.19,1.5-.29-.66-.33-1.48S376.08,381.93,376.22,381.92Z" style="fill:#455a64"></path><path d="M376,376c.14,0,.28.66.32,1.48s-.06,1.49-.21,1.5-.28-.66-.31-1.48S375.85,376,376,376Z" style="fill:#455a64"></path><path d="M375.78,370c.15,0,.28.65.31,1.48S376,373,375.88,373s-.28-.65-.31-1.48S375.64,370,375.78,370Z" style="fill:#455a64"></path><path d="M375.6,364.06c.14,0,.28.66.3,1.48s-.07,1.49-.21,1.5-.28-.66-.31-1.49S375.46,364.06,375.6,364.06Z" style="fill:#455a64"></path><path d="M375.44,358.1c.15,0,.28.66.3,1.49s-.08,1.49-.22,1.49-.28-.66-.3-1.48S375.3,358.11,375.44,358.1Z" style="fill:#455a64"></path><path d="M375.32,352.15c.14,0,.27.66.29,1.48s-.09,1.49-.23,1.5-.28-.66-.29-1.49S375.17,352.15,375.32,352.15Z" style="fill:#455a64"></path><path d="M375.21,346.19c.15,0,.28.67.29,1.49s-.09,1.49-.24,1.49-.27-.66-.28-1.48S375.07,346.19,375.21,346.19Z" style="fill:#455a64"></path><path d="M375.14,340.24c.15,0,.27.66.28,1.48s-.1,1.49-.24,1.49-.27-.66-.28-1.48S375,340.24,375.14,340.24Z" style="fill:#455a64"></path><path d="M375.1,334.28c.14,0,.26.67.27,1.49s-.11,1.49-.25,1.49-.27-.67-.27-1.49S375,334.28,375.1,334.28Z" style="fill:#455a64"></path><path d="M375.09,328.32c.14,0,.26.67.26,1.49s-.12,1.49-.26,1.49-.26-.66-.26-1.49S374.94,328.32,375.09,328.32Z" style="fill:#455a64"></path><path d="M375.1,322.37c.15,0,.26.66.26,1.49s-.12,1.49-.27,1.49-.26-.67-.25-1.5S375,322.37,375.1,322.37Z" style="fill:#455a64"></path><path d="M375.15,316.41c.15,0,.26.67.25,1.49s-.13,1.49-.28,1.49-.25-.67-.24-1.49S375,316.41,375.15,316.41Z" style="fill:#455a64"></path><path d="M375.23,310.45c.14,0,.25.67.24,1.5s-.14,1.48-.28,1.48-.25-.67-.24-1.49S375.08,310.45,375.23,310.45Z" style="fill:#455a64"></path><path d="M375.33,304.5c.15,0,.25.67.24,1.49s-.15,1.49-.29,1.49-.25-.67-.23-1.5S375.19,304.5,375.33,304.5Z" style="fill:#455a64"></path><path d="M375.47,298.54c.14,0,.24.67.22,1.5s-.15,1.48-.29,1.48-.25-.67-.23-1.5S375.33,298.54,375.47,298.54Z" style="fill:#455a64"></path><path d="M375.68,292.58c.14,0,.23.68.2,1.5s-.18,1.49-.32,1.48-.23-.68-.2-1.5S375.54,292.58,375.68,292.58Z" style="fill:#455a64"></path><path d="M376,286.63c.14,0,.21.69.16,1.51s-.22,1.47-.36,1.47-.22-.69-.16-1.51S375.88,286.62,376,286.63Z" style="fill:#455a64"></path><path d="M376.57,280.7c.14,0,.19.69.11,1.51s-.27,1.47-.41,1.45-.19-.68-.11-1.5S376.43,280.68,376.57,280.7Z" style="fill:#455a64"></path><path d="M377.15,276.27c.14,0,.21.37.15.78s-.22.73-.36.71-.22-.37-.16-.78S377,276.25,377.15,276.27Z" style="fill:#455a64"></path><polygon points="354.65 425.37 383.01 425.83 382.79 421.11 354.65 421.26 354.65 425.37" style="fill:#455a64"></polygon><path d="M373.25,248.12a5.39,5.39,0,0,1,.17,1.09c.07.71.16,1.73.27,3,.2,2.53.44,6,.68,9.88.12,1.92.22,3.75.32,5.44a16.74,16.74,0,0,0,.52,4.34A3.68,3.68,0,0,0,377,274a4.77,4.77,0,0,0,1,.29s-.1,0-.29.05a2.32,2.32,0,0,1-.82-.16,3.78,3.78,0,0,1-2.08-2.21,16.11,16.11,0,0,1-.65-4.44c-.11-1.69-.23-3.52-.36-5.44-.23-3.86-.42-7.35-.53-9.89-.06-1.26-.09-2.29-.1-3A3.93,3.93,0,0,1,373.25,248.12Z" style="fill:#455a64"></path><path d="M376,250.49c0,.07-.22.24-.25.67a.83.83,0,0,0,.21.61.72.72,0,0,0,1.14-.46.85.85,0,0,0-.28-.59c-.31-.28-.63-.22-.64-.3s.33-.3.85,0a1,1,0,0,1-.17,1.92,1.09,1.09,0,0,1-1.25-.26,1.11,1.11,0,0,1-.22-1C375.55,250.51,376,250.42,376,250.49Z" style="fill:#455a64"></path><path d="M401.24,254.73a5.17,5.17,0,0,1-2.23.85,9.62,9.62,0,0,1-5.71-.64,9.49,9.49,0,0,1-4.28-3.83,5.13,5.13,0,0,1-.86-2.23c.09,0,.36.84,1.17,2a9.76,9.76,0,0,0,9.62,4.3C400.37,255,401.21,254.64,401.24,254.73Z" style="fill:#455a64"></path><path d="M356.64,248.12a3.89,3.89,0,0,1-.1,1.94,7.6,7.6,0,0,1-6.7,5.86,3.7,3.7,0,0,1-1.93-.16c0-.08.74,0,1.88-.2a8.32,8.32,0,0,0,4-1.88,8.44,8.44,0,0,0,2.39-3.72C356.53,248.85,356.55,248.12,356.64,248.12Z" style="fill:#455a64"></path><path d="M391.36,164.88a24.29,24.29,0,0,0-7.31-1.4h0a29.29,29.29,0,0,1-17.65,0,85.52,85.52,0,0,0-16,3L328,172.52,335.33,200l13.52-4.56s-7.4,51.05-7.27,56.76l59.35-3.91-2.27-28.24-.75-24.51,17,3.12,11.42-22.79" style="fill:#A855F7"></path><path d="M386.39,163.39s-.24.22-.73.53a15.33,15.33,0,0,1-2.19,1.12,20.41,20.41,0,0,1-3.47,1.15,24.74,24.74,0,0,1-4.44.58,23.36,23.36,0,0,1-4.47-.33,20.5,20.5,0,0,1-3.53-.94,15.14,15.14,0,0,1-2.25-1,3.4,3.4,0,0,1-.77-.48c0-.08,1.18.51,3.13,1.13a23.92,23.92,0,0,0,3.5.82,26.18,26.18,0,0,0,4.37.28,27,27,0,0,0,4.35-.53,24.82,24.82,0,0,0,3.44-1C385.25,164,386.35,163.31,386.39,163.39Z" style="fill:#263238"></path><path d="M377.82,188.78a4.63,4.63,0,0,1,.92-.05l2.7-.06,9.77-.12h.23v.23c0,1.83,0,3.8,0,5.89,0,1.05,0,2.1,0,3.23a6.93,6.93,0,0,1-5.4,6.29,6.91,6.91,0,0,1-7.87-4,7.16,7.16,0,0,1-.51-2,17.07,17.07,0,0,1,0-1.88c0-2.3.07-4.18.1-5.58,0-.59,0-1.08,0-1.48a3.12,3.12,0,0,1,0-.49,3.3,3.3,0,0,1,0,.56c0,.41,0,.91,0,1.53,0,1.37.06,3.23.1,5.5,0,.57,0,1.18.07,1.79a6.64,6.64,0,0,0,.51,1.85,6.5,6.5,0,0,0,7.36,3.69,6.45,6.45,0,0,0,5-5.83c.05-1.06,0-2.16,0-3.2,0-2.09,0-4.06,0-5.89l.22.23-9.62-.12-2.76-.06A8.78,8.78,0,0,1,377.82,188.78Z" style="fill:#263238"></path><path d="M390.78,190.9s.14-.06.41-.08V191c-.91.1-3.45.17-6.45.17a44.39,44.39,0,0,1-6.85-.26,46,46,0,0,1,6.85-.26c3,0,5.54.08,6.45.18V191C390.92,191,390.78,190.93,390.78,190.9Z" style="fill:#263238"></path><path d="M424.74,175.5a3.85,3.85,0,0,1-.42.93L423,178.86l-4.28,8-4.19,8.06-1.27,2.44a3.69,3.69,0,0,1-.53.86,4,4,0,0,1,.34-.95c.26-.6.64-1.46,1.13-2.52,1-2.11,2.4-5,4.06-8.14s3.24-5.94,4.42-7.94c.59-1,1.09-1.81,1.44-2.35A4.24,4.24,0,0,1,424.74,175.5Z" style="fill:#263238"></path><path d="M339,198.56a4.36,4.36,0,0,1-.47-1c-.28-.65-.66-1.6-1.11-2.77-.91-2.36-2.1-5.64-3.32-9.29s-2.23-7-2.91-9.43c-.35-1.21-.61-2.2-.78-2.88a4.08,4.08,0,0,1-.21-1.08,4.33,4.33,0,0,1,.4,1l.94,2.84c.82,2.51,1.88,5.77,3.06,9.36l3.16,9.33c.38,1.11.7,2.06,1,2.83A4.24,4.24,0,0,1,339,198.56Z" style="fill:#263238"></path><path d="M401.24,245.74c0,.14-13.21,1-29.52,2s-29.55,1.63-29.56,1.49,13.21-1.05,29.53-2S401.23,245.6,401.24,245.74Z" style="fill:#263238"></path></g><g id="freepik--Garlands--inject-4"><path d="M247.93,40.34s9.19,50.81,15.41,50.58c8-.3,35.3-42.61,35.3-42.61S252.43,41.2,247.93,40.34Z" style="fill:#A855F7"></path><g style="opacity:0.30000000000000004"><path d="M247.93,40.34s9.19,50.81,15.41,50.58c8-.3,35.3-42.61,35.3-42.61S252.43,41.2,247.93,40.34Z" style="fill:#fff"></path></g><path d="M267.11,56.53l5.52.2a.83.83,0,0,1,.32.06.63.63,0,0,1,.45.67.56.56,0,0,1-.07.26.83.83,0,0,1-.71.43L267.67,58l-.8,4.67,3.57.13a.92.92,0,0,1,.38.09.66.66,0,0,1,.4.66.59.59,0,0,1-.05.23.81.81,0,0,1-.72.44l-3.8-.14-.73,4.37,4.9.18a1.16,1.16,0,0,1,.37.07.67.67,0,0,1,.42.67.6.6,0,0,1,0,.22.78.78,0,0,1-.73.46l-5.72-.21a.69.69,0,0,1-.39-.12.82.82,0,0,1-.31-.73q0-.13,2-11.8a.84.84,0,0,1,.07-.24A.65.65,0,0,1,267.11,56.53Z" style="fill:#263238"></path><path d="M303.66,49.1s13.69,49.79,19.86,49c8-1,31.36-45.59,31.36-45.59S308.21,49.56,303.66,49.1Z" style="fill:#A855F7"></path><path d="M329.2,76.67l-5.78.3a.62.62,0,0,1-.37-.09,1.07,1.07,0,0,1-.37-.7h0q0-.36,1-11.92a2.11,2.11,0,0,1,0-.25.69.69,0,0,1,.93-.39.64.64,0,0,1,.39.59c0,.52-.1,1.61-.22,3.26q-.6,7.64-.61,8.05l4.91-.26a1.14,1.14,0,0,1,.37,0,.64.64,0,0,1,.47.62.6.6,0,0,1,0,.23A.8.8,0,0,1,329.2,76.67Z" style="fill:#263238"></path><path d="M359.89,52.55s18.11,48.36,24.18,47c7.84-1.73,27.14-48.22,27.14-48.22S364.46,52.6,359.89,52.55Z" style="fill:#A855F7"></path><g style="opacity:0.30000000000000004"><path d="M359.89,52.55s18.11,48.36,24.18,47c7.84-1.73,27.14-48.22,27.14-48.22S364.46,52.6,359.89,52.55Z" style="fill:#fff"></path></g><path d="M386.77,67.41a4.19,4.19,0,0,0-.58-.77,1.92,1.92,0,0,0-1.6-.67,1.82,1.82,0,0,0-1,.54,5.55,5.55,0,0,0-1.37,2.73,9.57,9.57,0,0,0-.25,3.69,6.55,6.55,0,0,0,.95,2.73,1.88,1.88,0,0,0,1.84,1,1.92,1.92,0,0,0,1-.6,5.72,5.72,0,0,0,1.32-2.28.36.36,0,0,1,0-.11.61.61,0,0,1,.52-.42.69.69,0,0,1,.35,0,.65.65,0,0,1,.43.55.87.87,0,0,1,0,.34,7.39,7.39,0,0,1-1,2.17,3.79,3.79,0,0,1-2.55,1.74l-.38,0a3.08,3.08,0,0,1-2.39-1.24,7.1,7.1,0,0,1-1.51-3.68,10.24,10.24,0,0,1,0-2.82,9.13,9.13,0,0,1,1.36-3.92,3.85,3.85,0,0,1,2.62-1.91,2.85,2.85,0,0,1,1.26.1,4,4,0,0,1,2.17,2,.77.77,0,0,1,.11.31.61.61,0,0,1,0,.35.68.68,0,0,1-.54.43A.83.83,0,0,1,386.77,67.41Z" style="fill:#263238"></path><path d="M413.55,51.43S434.46,98.65,440.45,97c7.72-2.19,24.26-49.74,24.26-49.74S418.12,51.21,413.55,51.43Z" style="fill:#A855F7"></path><path d="M435.28,70.87a10.33,10.33,0,0,1-.17-2.85,8.93,8.93,0,0,1,1.16-4,3.82,3.82,0,0,1,2.47-2,2.94,2.94,0,0,1,2.58.78,6.54,6.54,0,0,1,1.87,3.31c.17-.11.42-.29.74-.53a2.83,2.83,0,0,1,1-.56.58.58,0,0,1,.32,0,.61.61,0,0,1,.43.47,1,1,0,0,1-.17.67,4.39,4.39,0,0,1-2,1.36,10.86,10.86,0,0,1,.05,1.89,8.86,8.86,0,0,1-1.14,4.06,3.92,3.92,0,0,1-2.53,2l-.38,0A3.09,3.09,0,0,1,437,74.46,7.11,7.11,0,0,1,435.28,70.87Zm1.38-.53a7.55,7.55,0,0,0,1,2.58c.6.94,1.29,1.33,2.05,1.17a1.32,1.32,0,0,0,.57-.26,4.24,4.24,0,0,0,1.35-2.21,9.53,9.53,0,0,0,.45-3.67,4.2,4.2,0,0,1-2.43-.24,5.08,5.08,0,0,1-2.51-2.31A8.64,8.64,0,0,0,436.66,70.34Zm2.66-6.85a.84.84,0,0,0-.38.18,1.15,1.15,0,0,0-.25,1.15,1.9,1.9,0,0,0,.09.29,2.33,2.33,0,0,0,1.48,1.33,3,3,0,0,0,1.58.19,8,8,0,0,0-.48-1.33C440.77,64,440.09,63.39,439.32,63.49Z" style="fill:#263238"></path><path d="M467.86,45.87s25.68,44.8,31.46,42.49c7.46-3,19-52,19-52S472.38,45.18,467.86,45.87Z" style="fill:#A855F7"></path><g style="opacity:0.30000000000000004"><path d="M467.86,45.87s25.68,44.8,31.46,42.49c7.46-3,19-52,19-52S472.38,45.18,467.86,45.87Z" style="fill:#fff"></path></g><path d="M502,64.58v0a.66.66,0,0,1-.45.85.7.7,0,0,1-.38,0,.83.83,0,0,1-.54-.6q0-.13-1.34-7c-.44,3.15-.79,5.64-1,7.46-.05.39-.08.6-.09.65a.79.79,0,0,1-.5.68l-.16,0a.79.79,0,0,1-.7-.4l-3.63-6.53q.71,3.91,1.18,7.2v0a.64.64,0,0,1-.45.84.59.59,0,0,1-.37,0,.79.79,0,0,1-.55-.59c0-.06-.56-3.13-1.63-9.23-.27-1.58-.42-2.43-.44-2.55a1.06,1.06,0,0,1,0-.31.68.68,0,0,1,.5-.51l.19,0a.53.53,0,0,1,.52.25c.3.57,1.22,2.25,2.75,5l2.13,3.89L498.53,53a.81.81,0,0,1,0-.2.79.79,0,0,1,.5-.49.73.73,0,0,1,.86.44c0,.16.06.35.11.57C501.24,60,501.91,63.74,502,64.58Z" style="fill:#263238"></path><path d="M521.23,35.58s29,42.73,34.59,40c7.21-3.53,15-53.27,15-53.27S525.69,34.55,521.23,35.58Z" style="fill:#A855F7"></path><path d="M545.41,42.68l5.13-2.06a1.25,1.25,0,0,1,.31-.07.64.64,0,0,1,.69.43.63.63,0,0,1,0,.27.84.84,0,0,1-.47.68l-4.61,1.84,1.17,4.59L551,47a1.07,1.07,0,0,1,.39-.07.67.67,0,0,1,.64.44.62.62,0,0,1,0,.23.82.82,0,0,1-.48.7L548,49.74,549.15,54l4.55-1.82a.94.94,0,0,1,.36-.08.71.71,0,0,1,.71.65.79.79,0,0,1-.47.72L549,55.63a.73.73,0,0,1-.41,0,.82.82,0,0,1-.58-.54q0-.12-3-11.58a.72.72,0,0,1,0-.25A.63.63,0,0,1,545.41,42.68Z" style="fill:#263238"></path><path d="M193.77,27.06s5.16,51.38,11.38,51.64C213.17,79,243.7,39,243.7,39S198.18,28.27,193.77,27.06Z" style="fill:#A855F7"></path><path d="M209.34,45.08a.58.58,0,0,1,.31.13.67.67,0,0,1,.27.63c-.52,1.83-.92,3.27-1.21,4.31-.71,2.53-1.08,4-1.14,4.33-.22,1.46,0,2.24.77,2.36a4.23,4.23,0,0,0,1.86-.15,10.18,10.18,0,0,1,.06-2.48,12.39,12.39,0,0,1,.41-1.86c.58-1.84,1.51-2.66,2.78-2.47a2,2,0,0,1,1.25.67,2.27,2.27,0,0,1,.46,1.89c0,.19-.07.4-.12.6a7.57,7.57,0,0,1-1.92,3.45,4.32,4.32,0,0,1-1.15.95c0,.16.17.26.44.3a4.49,4.49,0,0,0,3.75-1.52A14.47,14.47,0,0,0,219,52.11a4.23,4.23,0,0,1-2.37-1.18,3,3,0,0,1-.73-2.58,2.41,2.41,0,0,1,1.12-1.68,2.55,2.55,0,0,1,1.74-.38,2.79,2.79,0,0,1,1.86,1.06,3.18,3.18,0,0,1,.54,2.47c0,.22-.1.58-.22,1.07a2.63,2.63,0,0,0,.39-.06,5.7,5.7,0,0,0,1.23-.4,1.64,1.64,0,0,1,.85-.19.44.44,0,0,1,.24.11.6.6,0,0,1,.24.61c-.05.34-.39.63-1,.87a6.39,6.39,0,0,1-2.48.41,14.89,14.89,0,0,1-3,4.62A6.23,6.23,0,0,1,211.94,59l-.16,0a2,2,0,0,1-1.25-.87,5.76,5.76,0,0,1-2.71.23,1.93,1.93,0,0,1-1.21-.65,4.13,4.13,0,0,1-.5-3.3,25.13,25.13,0,0,1,1-4c.51-1.58.85-2.7,1-3.36-.62.28-1.11.49-1.47.64a3.46,3.46,0,0,1-1.06.36.68.68,0,0,1-.59-.8.83.83,0,0,1,.5-.58l.22-.1A14.74,14.74,0,0,1,209.34,45.08ZM211.52,56a3,3,0,0,0,.67-.54,5.3,5.3,0,0,0,1.5-3c0-.06,0-.11,0-.16,0-.48-.14-.75-.55-.81s-.6.21-.89.73a7.55,7.55,0,0,0-.68,2.34A8.89,8.89,0,0,0,211.52,56Zm5.77-7.18a1.42,1.42,0,0,0,.08.77c.27.68,1,1.1,2.18,1.28a7.89,7.89,0,0,0,.33-1.26,2.55,2.55,0,0,0,0-.73,1.18,1.18,0,0,0-1-1.07,1.47,1.47,0,0,0-.81.08A1.15,1.15,0,0,0,217.29,48.79Z" style="fill:#263238"></path><path d="M619.08,6s-.41.18-1.21.5l-3.55,1.41-5.78,2.29-3.69,1.45-4.24,1.54-10,3.63-12,4c-2.15.75-4.39,1.42-6.71,2.13l-7.16,2.2c-1.22.38-2.47.77-3.74,1.14l-3.86,1.09-8,2.25a659.24,659.24,0,0,1-78.47,16.19c-15,2.07-30.7,3.82-47.08,5s-33.38,1.71-50.79,1.64l-13-.16L347,51.83l-3.17-.12-3.16-.19-6.28-.39-6.23-.38L322,50.23c-4.09-.38-8.15-.64-12.16-1.1l-11.9-1.31c-3.92-.45-7.79-1-11.62-1.53l-5.71-.78-5.62-.9c-14.93-2.24-29-5.2-42.08-8.07-13.06-3.08-25.18-6.19-36.1-9.48l-8-2.39c-2.6-.76-5.09-1.65-7.54-2.44-4.88-1.61-9.51-3.07-13.75-4.66s-8.25-2.92-11.87-4.32l-9.89-3.88c-1.48-.59-2.89-1.12-4.2-1.67l-3.64-1.55L132.19,3.7l-3.5-1.51c-.79-.34-1.19-.53-1.19-.53s.41.15,1.21.48l3.53,1.46c1.55.65,3.46,1.46,5.73,2.4l3.65,1.54c1.31.54,2.72,1.06,4.21,1.64L155.72,13c3.63,1.38,7.62,2.74,11.88,4.28s8.88,3,13.76,4.62c2.45.78,4.94,1.66,7.55,2.41l8,2.38C207.84,30,220,33.05,233,36.12c13.11,2.85,27.14,5.79,42.06,8l5.62.9,5.71.77c3.83.5,7.69,1.08,11.61,1.53l11.89,1.3c4,.45,8.07.72,12.15,1.09l6.16.52,6.22.38,6.28.38,3.15.19,3.17.12,12.8.47,13,.16c17.4.07,34.39-.53,50.76-1.63s32.1-2.94,47-5A663.65,663.65,0,0,0,549,29.25l8-2.24L561,25.93l3.74-1.12,7.16-2.18c2.32-.71,4.56-1.38,6.71-2.11l12-4,10-3.59,4.25-1.52,3.7-1.43,5.79-2.23,3.57-1.37Z" style="fill:#455a64"></path></g><g id="freepik--Confetti--inject-4"><path d="M477.5,121.46a2.22,2.22,0,0,1-.9.05,3.61,3.61,0,0,1-2.25-1.28c-1.67-1.69-1.4-6,1.81-8.62a2.66,2.66,0,0,1,1.55-.42,2.19,2.19,0,0,1,1.54.66,2,2,0,0,1,.43,1.7,3.51,3.51,0,0,1-.83,1.61,6.38,6.38,0,0,1-7.18,1.3,5.59,5.59,0,0,1-2.92-2.92,6.66,6.66,0,0,1-.36-4.3,6.13,6.13,0,0,1,.93-2,3.94,3.94,0,0,1,1.77-1.47,2.15,2.15,0,0,1,1.21-.13,1.5,1.5,0,0,1,1,.71,2.69,2.69,0,0,1,0,2.38,6.71,6.71,0,0,1-7.78,3.49,6.4,6.4,0,0,1-3.45-2.59,6.79,6.79,0,0,1-1.16-4,4.85,4.85,0,0,1,1.59-3.59,3,3,0,0,1,1.81-.67,2.3,2.3,0,0,1,1.76.68,3,3,0,0,1,.31,3.38,4,4,0,0,1-2.66,1.76,5.67,5.67,0,0,1-2.91-.18,6.6,6.6,0,0,1-2.25-1.29,6.81,6.81,0,0,1-1.47-1.71,7,7,0,0,1-.79-1.72,6.21,6.21,0,0,1-.24-2.6,6,6,0,0,1,.19-.89s-.06.31-.12.9a6.2,6.2,0,0,0,.3,2.55,7.21,7.21,0,0,0,.8,1.67,6.94,6.94,0,0,0,1.45,1.66,6.6,6.6,0,0,0,2.2,1.22,5.45,5.45,0,0,0,2.79.14,3.6,3.6,0,0,0,2.47-1.65,2.66,2.66,0,0,0-.28-3,2.39,2.39,0,0,0-3.17,0,4.52,4.52,0,0,0-1.46,3.36,6.43,6.43,0,0,0,1.12,3.78,6.07,6.07,0,0,0,3.26,2.46,6.39,6.39,0,0,0,7.37-3.31,2.37,2.37,0,0,0,0-2.06,1.19,1.19,0,0,0-.79-.55,1.77,1.77,0,0,0-1,.11,3.61,3.61,0,0,0-1.62,1.35,5.71,5.71,0,0,0-.88,1.93,6.35,6.35,0,0,0,.33,4.09,5.3,5.3,0,0,0,2.75,2.76,6.1,6.1,0,0,0,6.84-1.2,3.37,3.37,0,0,0,.77-1.47,1.7,1.7,0,0,0-.36-1.47,1.92,1.92,0,0,0-1.35-.58,2.37,2.37,0,0,0-1.41.37,5.41,5.41,0,0,0-1.81,2.12,8.36,8.36,0,0,0-.86,2.38,4.49,4.49,0,0,0,.83,3.83,3.62,3.62,0,0,0,2.15,1.29A5.56,5.56,0,0,0,477.5,121.46Z" style="fill:#263238"></path><path d="M330.92,239.55s-.08.06-.24.14l-.74.38a25.38,25.38,0,0,0-2.7,1.65,23.78,23.78,0,0,0-7.55,8.69,16.94,16.94,0,0,0-2,7.65,8.46,8.46,0,0,0,1.14,4.19,6.6,6.6,0,0,0,3.42,2.94,3.93,3.93,0,0,0,2.3.16,2.29,2.29,0,0,0,1.72-1.36,2.09,2.09,0,0,0-.61-2.11,3.61,3.61,0,0,0-2.21-1,13.65,13.65,0,0,0-2.63,0,20.53,20.53,0,0,0-2.67.41,14.58,14.58,0,0,0-5,2.05c-3.06,2-5,5.78-4.15,9.16a5.71,5.71,0,0,0,3,3.82,3.89,3.89,0,0,0,4.37-.75,3,3,0,0,0,1-2,3.25,3.25,0,0,0-.6-2.07,4.48,4.48,0,0,0-3.69-1.86,8.48,8.48,0,0,0-6.75,3.5,8.64,8.64,0,0,0-1.76,6.14,9.44,9.44,0,0,0,4.11,6.71c.6.4,1,.55.94.58a4.9,4.9,0,0,1-1-.49,8.82,8.82,0,0,1-2.38-2.12,9.41,9.41,0,0,1-2-4.65,9.19,9.19,0,0,1,8.81-10.1,4.87,4.87,0,0,1,4.05,2,3.7,3.7,0,0,1,.7,2.36,3.56,3.56,0,0,1-1.09,2.28,4.53,4.53,0,0,1-2.3,1.2,4.31,4.31,0,0,1-2.62-.34,6.16,6.16,0,0,1-3.27-4.15,8.25,8.25,0,0,1,.64-5.45,10.44,10.44,0,0,1,3.71-4.26,15.2,15.2,0,0,1,5.23-2.13,21.7,21.7,0,0,1,2.73-.41,13.93,13.93,0,0,1,2.74,0,4.09,4.09,0,0,1,2.51,1.13,2.6,2.6,0,0,1,.72,2.63,2.74,2.74,0,0,1-2.08,1.67,4.32,4.32,0,0,1-2.57-.18,7,7,0,0,1-3.66-3.16,8.83,8.83,0,0,1-1.17-4.41,17.15,17.15,0,0,1,2.11-7.82,23.39,23.39,0,0,1,7.75-8.7A16.76,16.76,0,0,1,330.92,239.55Z" style="fill:#263238"></path></g><g id="freepik--Balloons--inject-4"><path d="M146.33,200.57a5,5,0,0,1-.62-.6,8.44,8.44,0,0,1-1.36-2.08,9.56,9.56,0,0,1-.86-3.84,9,9,0,0,1,1.47-5,36.25,36.25,0,0,1,4.08-4.81,19.42,19.42,0,0,0,2.11-2.75,8.71,8.71,0,0,0,1.28-3.39,7,7,0,0,0-.57-3.72,16.35,16.35,0,0,0-2.12-3.41c-.84-1.09-1.76-2.16-2.6-3.33a16.14,16.14,0,0,1-2.09-3.86,9.71,9.71,0,0,1-.57-4.36,7.49,7.49,0,0,1,1.7-3.91,5.55,5.55,0,0,1,3.61-2,3.22,3.22,0,0,1,2,.41,2.15,2.15,0,0,1,1,1.75,1.91,1.91,0,0,1-1.09,1.64,2.48,2.48,0,0,1-1.9.18,6,6,0,0,1-2.82-2.16,12.45,12.45,0,0,1-2.41-5.82,19,19,0,0,1,0-5.2,33,33,0,0,1,.71-3.87c.24-1,.46-1.85.61-2.4.07-.26.13-.46.18-.62a.8.8,0,0,1,.07-.21s0,.08,0,.22-.08.37-.14.63l-.54,2.41a37.25,37.25,0,0,0-.64,3.86,19.07,19.07,0,0,0,.1,5.14,12.28,12.28,0,0,0,2.4,5.66,5.66,5.66,0,0,0,2.65,2.05,2.23,2.23,0,0,0,1.66-.17,1.57,1.57,0,0,0,.9-1.34,1.8,1.8,0,0,0-.86-1.45,2.87,2.87,0,0,0-1.79-.35,5.18,5.18,0,0,0-3.36,1.87,7.12,7.12,0,0,0-1.61,3.72,9.25,9.25,0,0,0,.56,4.18,15.74,15.74,0,0,0,2,3.77c.83,1.15,1.75,2.22,2.59,3.33a16.46,16.46,0,0,1,2.16,3.49,7.48,7.48,0,0,1,.59,3.91,9.12,9.12,0,0,1-1.35,3.51,19.68,19.68,0,0,1-2.16,2.79,36.06,36.06,0,0,0-4.08,4.74,8.79,8.79,0,0,0-1.49,4.83,9.57,9.57,0,0,0,.78,3.78,8.81,8.81,0,0,0,1.29,2.09C146.13,200.35,146.34,200.56,146.33,200.57Z" style="fill:#263238"></path><path d="M151,94.28c-8.92-1.19-15.49,3.48-18.42,10.61s-1.49,15.48,2.23,22.23c2.06,3.75,5.15,7.36,9.35,8.22a12.09,12.09,0,0,0,9.77-2.79,26.41,26.41,0,0,0,6.34-8.3c2.95-5.5,4.72-11.72,4-17.92-.59-5.44-6.17-11.24-13.3-12" style="fill:#A855F7"></path><path d="M145.52,134.76c-.33.46-1.05,2.07-1.3,2.57a.9.9,0,0,0-.12.77.63.63,0,0,0,.78.26,1.76,1.76,0,0,0,.71-.56.86.86,0,1,0,1.67-.37,1.63,1.63,0,0,0,.67.58.53.53,0,0,0,.7-.37.8.8,0,0,0-.23-.51c-.59-.74-1.18-1.47-1.76-2.21" style="fill:#A855F7"></path><path d="M618.1,297.87a5,5,0,0,1-.62-.6,8.44,8.44,0,0,1-1.36-2.08,9.56,9.56,0,0,1-.86-3.84,9,9,0,0,1,1.48-5,36,36,0,0,1,4.07-4.81,19.42,19.42,0,0,0,2.11-2.75,8.65,8.65,0,0,0,1.28-3.39,7,7,0,0,0-.57-3.72,16.35,16.35,0,0,0-2.12-3.41c-.84-1.09-1.76-2.16-2.6-3.33a16,16,0,0,1-2.09-3.86,9.71,9.71,0,0,1-.57-4.36,7.42,7.42,0,0,1,1.71-3.91,5.54,5.54,0,0,1,3.6-2,3.21,3.21,0,0,1,2,.41,2.15,2.15,0,0,1,1,1.75,1.91,1.91,0,0,1-1.09,1.64,2.53,2.53,0,0,1-1.9.19,6,6,0,0,1-2.81-2.17,12.57,12.57,0,0,1-2.42-5.82,18.54,18.54,0,0,1,0-5.2,35.44,35.44,0,0,1,.7-3.87c.24-1.05.46-1.85.61-2.4.07-.26.13-.46.18-.62a.8.8,0,0,1,.07-.21.89.89,0,0,1,0,.22l-.14.63-.54,2.41a38.19,38.19,0,0,0-.64,3.86,19.07,19.07,0,0,0,.1,5.14,12.31,12.31,0,0,0,2.4,5.67,5.69,5.69,0,0,0,2.65,2,2.23,2.23,0,0,0,1.66-.17,1.55,1.55,0,0,0,.9-1.34,1.78,1.78,0,0,0-.86-1.45,2.86,2.86,0,0,0-1.79-.35,5.16,5.16,0,0,0-3.35,1.87,7.05,7.05,0,0,0-1.62,3.72,9.31,9.31,0,0,0,.56,4.19,15.67,15.67,0,0,0,2,3.76c.83,1.15,1.75,2.22,2.59,3.33a16.46,16.46,0,0,1,2.16,3.49,7.48,7.48,0,0,1,.59,3.91,9.2,9.2,0,0,1-1.34,3.51,19.9,19.9,0,0,1-2.17,2.79,36.06,36.06,0,0,0-4.08,4.74,8.79,8.79,0,0,0-1.49,4.83,9.39,9.39,0,0,0,.79,3.78,8.84,8.84,0,0,0,1.28,2.09C617.9,297.65,618.11,297.86,618.1,297.87Z" style="fill:#263238"></path><path d="M622.72,191.59c-8.92-1.2-15.48,3.47-18.42,10.6s-1.49,15.48,2.23,22.23c2.06,3.75,5.15,7.36,9.35,8.22a12.12,12.12,0,0,0,9.78-2.79,26.53,26.53,0,0,0,6.33-8.3c3-5.5,4.72-11.72,4-17.92-.6-5.44-6.18-11.23-13.31-12" style="fill:#455a64"></path><path d="M617.29,232.06c-.33.46-1,2.07-1.3,2.58a.91.91,0,0,0-.12.76.64.64,0,0,0,.79.26,1.8,1.8,0,0,0,.7-.56.86.86,0,1,0,1.67-.37,1.62,1.62,0,0,0,.67.58.53.53,0,0,0,.7-.37.75.75,0,0,0-.23-.51c-.59-.73-1.17-1.47-1.76-2.21" style="fill:#455a64"></path><path d="M445.15,382a7.61,7.61,0,0,1-.76-.74,10.23,10.23,0,0,1-1.67-2.54,11.62,11.62,0,0,1-1.05-4.7,10.94,10.94,0,0,1,1.8-6.09,44,44,0,0,1,5-5.9A23,23,0,0,0,451,358.7a10.41,10.41,0,0,0,1.56-4.12,8.57,8.57,0,0,0-.7-4.54,19.43,19.43,0,0,0-2.59-4.16c-1-1.34-2.15-2.65-3.18-4.08a19.58,19.58,0,0,1-2.55-4.73,11.76,11.76,0,0,1-.71-5.34,9.13,9.13,0,0,1,2.1-4.81,6.74,6.74,0,0,1,4.42-2.43,3.85,3.85,0,0,1,2.48.5,2.66,2.66,0,0,1,1.26,2.17,2.36,2.36,0,0,1-1.35,2,3.11,3.11,0,0,1-2.35.23,7.34,7.34,0,0,1-3.45-2.66,15.26,15.26,0,0,1-3-7.12,22.8,22.8,0,0,1,0-6.38,42.37,42.37,0,0,1,.86-4.73c.3-1.28.57-2.26.76-2.93.09-.31.16-.56.21-.76s.09-.26.1-.25a1.27,1.27,0,0,1,0,.26c-.05.21-.1.46-.17.77l-.66,3a44.12,44.12,0,0,0-.77,4.71,23.13,23.13,0,0,0,.12,6.29,15.07,15.07,0,0,0,2.93,6.91,6.83,6.83,0,0,0,3.24,2.49,2.68,2.68,0,0,0,2-.2,1.9,1.9,0,0,0,1.09-1.62,2.15,2.15,0,0,0-1-1.74,3.41,3.41,0,0,0-2.17-.43,6.32,6.32,0,0,0-4.09,2.28,8.7,8.7,0,0,0-2,4.53,11.41,11.41,0,0,0,.69,5.11,19.07,19.07,0,0,0,2.48,4.6c1,1.4,2.13,2.71,3.16,4.07a20,20,0,0,1,2.65,4.28,9,9,0,0,1,.72,4.79,11.15,11.15,0,0,1-1.65,4.3,22.91,22.91,0,0,1-2.65,3.41,44.43,44.43,0,0,0-5,5.81,10.64,10.64,0,0,0-1.82,5.89,11.36,11.36,0,0,0,1,4.61,10.49,10.49,0,0,0,1.56,2.56C444.91,381.75,445.17,382,445.15,382Z" style="fill:#263238"></path><path d="M450.81,252c-10.91-1.46-18.95,4.26-22.53,13s-1.83,18.94,2.72,27.19c2.53,4.6,6.3,9,11.44,10.06,4.19.86,8.62-.73,12-3.42s5.72-6.37,7.74-10.14c3.62-6.73,5.77-14.34,4.94-21.93-.73-6.65-7.55-13.74-16.27-14.73" style="fill:#A855F7"></path><path d="M444.16,301.53c-.4.56-1.28,2.53-1.59,3.15a1.1,1.1,0,0,0-.14.94.78.78,0,0,0,1,.31,2.26,2.26,0,0,0,.86-.68,1,1,0,1,0,2-.46,1.89,1.89,0,0,0,.83.71.65.65,0,0,0,.85-.45,1,1,0,0,0-.28-.62l-2.16-2.71" style="fill:#A855F7"></path></g></svg>